<svg width="45" height="72" viewBox="0 0 45 72" xmlns="http://www.w3.org/2000/svg"><title>Page 1</title><g stroke="#010202" fill="none" fill-rule="evenodd"><path stroke-linecap="round" stroke-linejoin="round" d="M34.137 41.313l1.547 4.175-2.32 7.887-5.614 2.42-1.884 3.837-4.638 4.284-3.842-6.878-4.568-2.724-1.845-5.246-.495-7.755m0 0h23.659"/><path d="M20.98 40.817v-1.832c0-.468.384-.851.852-.851.467 0 .85.383.85.85v1.833H20.98zm1.045-9.395V29.59c0-.468.383-.85.85-.85.468 0 .85.383.85.85v2.432l-1.7-.6zm2.551 9.588v-1.832c0-.468.383-.85.851-.85.467 0 .85.382.85.85v1.832h-1.7z"/><path d="M.832 28.066c0 3.26 3.727 4.916 3.727 5.382 0-.518 3.725-2.07 3.725-5.382a3.726 3.726 0 1 0-7.452 0zm3.727 5.062s.818 8.822 6.23 14.543M.5 30.167h7.646M30.081 35s-8.596-4.532-14.455-4.532L14.024 41.28h16.704L30.081 35z" stroke-linecap="round" stroke-linejoin="round"/><path d="M27.75 33.522l-.355-3.863s-4.015-2.98-7.447-3.173l-.679 3.852M20.743 9.85c0 7.308-8.35 11.019-8.35 12.063 0-1.16-8.35-4.64-8.35-12.062a8.35 8.35 0 1 1 16.7 0zm-8.419 11.61c0 14.253 2.1 17.397 2.1 17.397" stroke-linecap="round" stroke-linejoin="round"/><path d="M3.366 10.2h18.171m3.586 41.884l-2.397 6.053m-5.49-4.197l-.463-1.856m8.35 0l.93-5.567m-5.31.813l-3.97 4.754m0 0l-5.65-3.016" stroke-linecap="round" stroke-linejoin="round" stroke-dasharray="4,4"/><path d="M9.251 4.184c.57-1.12 1.305-1.997 2.11-2.595m.898 19.871a30.085 30.085 0 0 1-1.692-2.83m4.547-14.778c-.534-.924-1.187-1.661-1.892-2.186m3.105 10.236c.37-2.43.155-4.551-.419-6.272m-3.584 15.83a29.903 29.903 0 0 0 1.978-3.385c.13-.263.253-.524.372-.782.38-.838.868-2.318 1.151-3.228m5.403 12.402l.309-6.12m-.001.133c0 1.182.726.98 1.907.98 1.182 0 2.14.202 2.14-.98l.283 8.016" stroke-linecap="round" stroke-linejoin="round"/><path d="M13.83 44.493h3.406" stroke-linecap="round" stroke-linejoin="round" stroke-dasharray="4,4"/><path d="M30.536 37.933c3.866-7.887 4.292-11.831 4.292-16.935m5.22-7.075c0 4.096-5.22 7.075-5.22 7.075s-5.219-2.863-5.219-7.075a5.22 5.22 0 1 1 10.44 0zM18.421 33.707v1.342M33.37 59.216l-3.177-4.386m1.5 10.983l-8.44-3.768m15.031 2.56a1.307 1.307 0 1 1-1.849-1.847 1.307 1.307 0 0 1 1.85 1.847z" stroke-linecap="round" stroke-linejoin="round"/><path d="M44.188 64.036l-1.402-.375a5.404 5.404 0 0 0-.716-2.675l1.025-1.026-2.013-2.014-1.026 1.026a5.4 5.4 0 0 0-2.675-.716l-.376-1.402-2.751.737.376 1.402a5.444 5.444 0 0 0-1.958 1.958l-1.402-.376-.736 2.751 1.402.376c.003.973.263 1.886.716 2.674l-1.027 1.026 2.014 2.014 1.027-1.026a5.403 5.403 0 0 0 2.674.716l.375 1.402 2.75-.737-.374-1.402a5.437 5.437 0 0 0 1.958-1.958l1.402.376.737-2.75z" stroke-linecap="round" stroke-linejoin="round"/></g></svg>