<svg width="52" height="78" viewBox="0 0 52 78" xmlns="http://www.w3.org/2000/svg" xmlns:xlink="http://www.w3.org/1999/xlink"><title>Page 1</title><defs><path id="a" d="M0 75.838h50.744V0H0z"/></defs><g transform="translate(1 1)" fill="none" fill-rule="evenodd"><path d="M26.073 61.37a2.995 2.995 0 0 0 0 4.215 2.94 2.94 0 0 0 4.182 0 2.996 2.996 0 0 0 0-4.214 2.94 2.94 0 0 0-4.182 0zm5.829-1.66l-1.89 1.905m3.259 3.242l-2.583-.697m-1.156 4.464l-.692-2.603m-4.415 1.224l1.89-1.905m-3.259-3.241l2.583.697m1.156-4.466l.692 2.604" stroke="#010202"/><path d="M32.593 34.907v-4.741M32.022 3.45V.273m12.225 26.502l-22.549 4.696c4.789-9.918 4.293-19.97-3.098-24.527l19.453-3.986c7.824 5.256 11.09 13.831 6.302 23.75l-.108.067zM19.389 47.843l1.926 22.731 9.352 4.99 13.479-14.97 2.2-13.305" stroke="#010202" stroke-linecap="round" stroke-linejoin="round"/><path d="M23.796 50.9h21.18" stroke="#010202" stroke-linecap="round" stroke-linejoin="round" stroke-dasharray="0,60"/><path d="M50.473 47.012H16.088M7.56 56.088c-1.628 0-2.96-1.343-2.96-2.984v-8.31h5.921v8.31c0 1.641-1.332 2.984-2.96 2.984zm0-11.294V41.55m-7.289 0h14.58" stroke="#010202" stroke-linecap="round" stroke-linejoin="round"/><path d="M5.15 41.039c0-1.336 1.085-2.43 2.41-2.43 1.326 0 2.412 1.094 2.412 2.43" stroke="#010202"/><path d="M44.907 54.811h-24.76m20.285-15.284v6.376m-14.579-.139V35.507h12.929l2.888 4.02H26.403M10.724 50.338l9.123 4.62" stroke="#010202" stroke-linecap="round" stroke-linejoin="round"/><path d="M20.66 64.48L8.695 55.331" stroke="#010202"/><path d="M29.668 43.482v2.494m3.782-2.494v2.494m3.783-2.494v2.494" stroke="#010202" stroke-linecap="round"/><mask id="b" fill="#fff"><use xlink:href="#a"/></mask><path stroke="#010202" stroke-linecap="round" stroke-linejoin="round" mask="url(#b)" d="M20.352 46.596h5.226v-3.613h-5.226zm2.475-4.713v-3.742M39.57 61.222h2.643m-6.481 0h.884m.877-3.198h-3.755m7.792 0h-.958m-1.195 6.408h-1.8m-14.88-53.296l3.723-.762m5.253 3.956l2.126-.436M24.68 15.75l4.708-.952m-4.416 5.938l2.678-.55m4.958 4.018l1.417-.29m-9.755 1.955l5.635-1.136M7.56 50.44v1.999"/></g></svg>