<svg width="522" height="466" viewBox="0 0 522 466" xmlns="http://www.w3.org/2000/svg"><title>Page 1</title><g stroke="#050505" fill="none" fill-rule="evenodd" stroke-linecap="round" stroke-linejoin="round"><path d="M318.877 457.716h4.683M184.926 415.05H181.9m31.204 35.64h-5.095m.668 8.773h-5.094M154.57 422.95h4.682M314.24 277.494h-3.025m29.855-2.157h-5.094m-172.95 84.431h-5.094m203.008-37.863h-5.094m-34.649-59.095h-3.026m31.204 35.64h-5.094m.666 8.773h-5.094m18.173 36.801h-3.854m-7.069 0h-.753m19.292 0h-.752"/><path stroke-dasharray="0,5,6,3,4" d="M213.923 264.102l8.05 34.75 12.285 52.533"/><path d="M317.94 212.656l75.998 130.737M-16.5 487.491l144.818-175.523 27.333 28.528 58.272-76.395 18.109 6.707"/><path d="M128.318 311.968l23.525 120.384" stroke-dasharray="0,5,6,3,4"/><path d="M165.703 354.466l45.124 52.387"/><path d="M498.354 323.372h-8.08" stroke-dasharray="0,3,0,5,0,5"/><path d="M280.558 192.51h-2.337m7.179 0h.333m4.897 0h3.34m3.15 14.261h-26.508m0 0l-48.64 83.585m76.954-98.015h6.552m-2.982 6.816h7.644m-6.235 7.614h10.798m-36.399-7.614h19.068m145.547 46.006h3.808m-7.901 0h.971m-5.401 0h1.298m64.475-4.349h3.556m2.998 0h1.396m4.583 7.75h-4.742m-25.048-5.071h3.808m-7.9 0h.97m8.766 5.14h3.557m4.389 0h-.555m1.589-68.62h3.808m-7.901 0h.971m-5.4 0h1.298m14.712 6.448h3.557m2.999 0h1.395m-10.94 21.532h-4.742m-308.56 197.904h-3.808m7.902 0h-.971m5.4 0h-1.298M183.96 393.01h-3.555m-2.999 0h-1.395m-4.741-14.89h4.741m95.517 43.149h-3.808m7.901 0h-.971m-115.928-22.688h-3.557m-4.39 0h.554m326.104-35.466h-3.808m7.9 0h-.97m5.4 0h-1.298m-6.56-6.899h-3.557m-3 0h-1.394m-6.323-7.762h4.742m30.421 32.66h-3.808m-11.28 0h-.97m17.711-6.599h-3.558m-9.212-2.103h.555M334.88 407.705l89.689-98.056 95.978 68.822"/><path d="M375.98 383.885l-4.05-16.196m52.64-58.039l26.157 50.118" stroke-dasharray="0,5,6,3,4"/><path d="M520.4 246.269l-21.684-21.596-24.863 17.2-44.882-41.431-67.499 73.939"/><path stroke-dasharray="0,5,6,3,4" d="M314.703 206.771l-45.079 43.542-5.072 89.6m6.06-133.142l-.988 43.542m159.348-49.872l-11.914 83.814"/><path d="M402.101 100.87L484.657-5.5" stroke-dasharray="0,6.678,8.013,4.007,5.342"/><path d="M449.433 219.33l58.058-91.946 14.282 13.754"/></g></svg>