<svg width="87" height="64" viewBox="0 0 87 64" xmlns="http://www.w3.org/2000/svg"><title>Group</title><g stroke="#5B5D5D" fill="none" fill-rule="evenodd" stroke-linecap="round" stroke-linejoin="round"><path d="M75.867 24.087C74.873 11.376 59.347 1 38.968 1S3.266 11.393 2.068 24.087c-.274 2.916.23 11.528 2.274 14.601 4.857 7.307 16.456 13.984 30.555 14.952.468-2.158 3.141-3.878 6.554-4.244.371-3.764 5.235-6.767 11.279-6.934 1.538-2.973 5.997-5.123 11.26-5.123 1.1 0 2.162.096 3.172.27.845-1.612 3.269-2.778 6.13-2.778 1.113 0 2.965-5.764 2.575-10.744z" stroke-width="2" fill="#1D1E1F"/><path d="M46.24 9.96c-1.546 0-2.8.752-2.8 1.68 0 .928 1.254 1.68 2.8 1.68 1.546 0 2.8-.752 2.8-1.68 0-.928-1.254-1.68-2.8-1.68zm-8.96 23.52c-.928 0-1.68.451-1.68 1.008 0 .557.752 1.008 1.68 1.008.928 0 1.68-.451 1.68-1.008 0-.557-.752-1.008-1.68-1.008zm24.64-12.32c-.928 0-1.68.451-1.68 1.008 0 .557.752 1.008 1.68 1.008.928 0 1.68-.451 1.68-1.008 0-.557-.752-1.008-1.68-1.008z" fill="#000"/><path d="M42.88 22.28c-2.165 0-3.92 1.003-3.92 2.24 0 1.237 1.755 2.24 3.92 2.24s3.92-1.003 3.92-2.24c0-1.237-1.755-2.24-3.92-2.24zm-20.72 5.6c-1.856 0-3.36 1.003-3.36 2.24 0 1.237 1.504 2.24 3.36 2.24 1.856 0 3.36-1.003 3.36-2.24 0-1.237-1.504-2.24-3.36-2.24zm.56-14.56c-2.784 0-5.04 1.504-5.04 3.36 0 1.856 2.256 3.36 5.04 3.36 2.783 0 5.04-1.504 5.04-3.36 0-1.856-2.257-3.36-5.04-3.36z"/><path d="M6.48 32.36c3.304 6.823 11.176 11.898 21.28 14.56m6.72 0c.472-2.076 3.163-3.73 6.598-4.082.374-3.621 5.27-6.51 11.354-6.67 1.549-2.86 6.037-4.928 11.336-4.928 1.106 0 2.176.092 3.192.26" stroke-dasharray="2,2"/><path d="M62.48 58.12c-1.856 0-3.36 1.607-3.36 2.629s1.504 1.851 3.36 1.851c1.856 0 3.36-.829 3.36-1.851s-1.504-2.629-3.36-2.629zM77.703 45.8c-4.02 0-6.263 2.8-6.263 5.355 0 2.555 1.017 3.594 7.28 4.626 3.97.655 7.28-2.071 7.28-4.626S81.724 45.8 77.703 45.8zM53.52 48.04c-1.856 0-3.36 1.607-3.36 2.629s1.504 1.851 3.36 1.851c1.856 0 3.36-.829 3.36-1.851s-1.504-2.629-3.36-2.629zm24.64 4.48c.846 1.018 1.955 1.488 3.36.785"/></g></svg>